<svg width="220" height="46" viewBox="0 0 220 46" fill="none" xmlns="http://www.w3.org/2000/svg">
<path d="M76.9652 10.9106C76.9132 10.7116 76.8035 10.5324 76.6499 10.3956C76.4963 10.2588 76.3057 10.1705 76.102 10.1419C72.9107 9.71902 69.6734 9.78822 66.5031 10.3471C61.9886 11.1744 58.4253 12.9886 55.8749 15.741C50.9989 21.0306 53.6535 29.2713 54.3245 31.0791C53.9484 32.3751 53.7179 33.709 53.6372 35.0561C53.6324 35.1928 53.6547 35.3292 53.7027 35.4573C53.7508 35.5854 53.8236 35.7027 53.9172 35.8026C54.0107 35.9025 54.123 35.9829 54.2477 36.0392C54.3723 36.0956 54.5069 36.1268 54.6437 36.131H54.6795C54.9487 36.1303 55.2073 36.0255 55.401 35.8385C55.5946 35.6515 55.7085 35.3968 55.7186 35.1278C55.7186 35.0268 56.1876 25.138 65.7083 19.2978C65.9437 19.1527 66.1119 18.92 66.1757 18.6509C66.2395 18.3818 66.1939 18.0984 66.0487 17.863C65.9036 17.6276 65.6709 17.4595 65.4018 17.3957C65.1327 17.3319 64.8493 17.3775 64.6139 17.5227C60.6194 19.9239 57.4534 23.4876 55.5394 27.7372C54.888 24.7862 54.5622 20.2457 57.4058 17.1546C62.0375 12.132 69.7994 11.8161 73.6396 12.0115C72.0534 14.0733 71.7797 16.438 71.5289 18.7376C71.1837 21.7863 70.8775 24.6689 67.7734 27.4375C64.0667 30.7534 58.7803 30.1768 58.7282 30.1703C58.4578 30.1444 58.188 30.2251 57.9762 30.3951C57.7644 30.5652 57.6273 30.8112 57.5942 31.0808C57.5611 31.3504 57.6345 31.6223 57.7989 31.8385C57.9632 32.0548 58.2055 32.1983 58.4741 32.2386C58.9068 32.2859 59.3418 32.3076 59.777 32.3038C61.8518 32.3038 65.9168 31.8901 69.174 28.988C72.8416 25.6917 73.2455 22.1218 73.6005 18.9721C73.9262 16.223 74.177 13.8518 76.5906 12.0017C76.7542 11.8775 76.8772 11.7074 76.9439 11.5131C77.0106 11.3188 77.018 11.1091 76.9652 10.9106Z" fill="#535353"/>
<path d="M97.22 22.74V24.68C96.14 25.04 95 25.36 93.8 25.68V29.86C93.8 31.14 93.12 31.8 91.78 31.8H89.54L89.12 29.98C89.82 30.06 90.48 30.1 91.12 30.1C91.62 30.1 91.88 29.86 91.88 29.38V26.12C90.68 26.38 89.46 26.62 88.18 26.82L87.92 24.92C89.3 24.7 90.62 24.46 91.88 24.2V20.62H87.92V18.8H91.88V16.68C90.88 16.88 89.86 17.04 88.8 17.2L88.4 15.4C91.2 15.1 93.68 14.52 95.84 13.64L96.5 15.42C95.64 15.72 94.74 16 93.8 16.26V18.8H98.12C98 17.24 97.94 15.52 97.94 13.64H99.86C99.86 15.6 99.92 17.32 100.04 18.8H106.08V20.62H100.2C100.32 21.94 100.5 23.04 100.74 23.92C100.82 24.3 100.92 24.64 101.02 24.96C101.88 23.92 102.64 22.74 103.28 21.42L104.92 22.28C104.02 24.12 102.96 25.7 101.72 27.02C101.96 27.56 102.18 28.02 102.42 28.38C103.02 29.28 103.48 29.74 103.8 29.74C104.06 29.74 104.32 28.7 104.58 26.62L106.26 27.5C105.76 30.34 105.02 31.78 104.06 31.78C103.2 31.78 102.3 31.18 101.36 30C100.98 29.52 100.64 28.98 100.34 28.34C98.96 29.5 97.42 30.42 95.7 31.08L94.64 29.44C96.52 28.76 98.16 27.78 99.56 26.5C99.32 25.84 99.12 25.16 98.94 24.44C98.66 23.36 98.44 22.08 98.28 20.62H93.8V23.76C95 23.44 96.14 23.1 97.22 22.74ZM102.06 13.82C103.48 14.72 104.68 15.62 105.68 16.52L104.3 17.88C103.46 17 102.3 16.06 100.78 15.04L102.06 13.82ZM115.26 16.9V30.82H113.44V29.78H110.28V31.4H108.46V16.9H110.36C110.72 15.82 111 14.72 111.16 13.56L113.06 13.82C112.86 14.92 112.56 15.94 112.18 16.9H115.26ZM110.28 28.02H113.44V24.08H110.28V28.02ZM110.28 22.38H113.44V18.7H110.28V22.38ZM118.86 21.7C120.18 23.34 121.2 24.76 121.9 26L120.4 27.06C119.64 25.74 118.6 24.28 117.32 22.66L118.86 21.7ZM125.58 16.92C125.58 23.82 125.48 28.08 125.28 29.68C125.08 31.12 124.12 31.84 122.42 31.84C122.02 31.84 121.3 31.8 120.3 31.74L119.84 30C120.72 30.04 121.48 30.08 122.12 30.08C122.92 30.08 123.38 29.66 123.5 28.82C123.62 27.82 123.68 24.46 123.72 18.76H118.7C118.14 19.96 117.5 21.06 116.74 22.06L115.6 20.56C116.92 18.64 117.84 16.3 118.32 13.54L120.2 13.78C120 14.9 119.72 15.94 119.4 16.92H125.58ZM140.46 20.86H136.98C136.78 24.04 136.04 26.6 134.76 28.52L133.44 27.16C134.56 25.44 135.18 23.06 135.28 20.02V14.74C138.4 14.68 141.2 14.32 143.66 13.66L144.56 15.3C142.3 15.88 139.78 16.22 137.02 16.34V19.04H145.62V20.86H142.3V29.08H140.46V20.86ZM129.74 13.8C131.06 14.84 132.18 15.9 133.1 16.94L131.72 18.28C130.94 17.28 129.84 16.2 128.42 15.04L129.74 13.8ZM141.18 31.72C140.1 31.72 138.92 31.7 137.66 31.68C136.38 31.66 135.34 31.54 134.52 31.34C133.72 31.1 133.04 30.62 132.44 29.94C132.18 29.6 131.94 29.44 131.7 29.44C131.3 29.44 130.58 30.34 129.56 32.14L128.16 30.84C129.16 29.22 130.06 28.2 130.86 27.8V22.14H128.16V20.38H132.64V27.98C132.72 28.06 132.82 28.14 132.92 28.26C133.36 28.78 133.84 29.18 134.34 29.44C134.92 29.74 135.78 29.9 136.94 29.94C138.06 29.96 139.38 29.98 140.92 29.98C141.9 29.98 142.9 29.96 143.92 29.96C144.92 29.92 145.7 29.88 146.24 29.84L145.78 31.72H141.18ZM154.08 14.42H164.38V22.98H161.76V29.44C161.76 29.76 161.94 29.94 162.3 29.94H163.58C163.88 29.94 164.1 29.78 164.22 29.5C164.4 29.18 164.52 28.22 164.58 26.62L166.28 27.14C166.12 29.32 165.86 30.62 165.5 31.04C165.14 31.44 164.62 31.64 163.92 31.64H161.74C160.54 31.64 159.96 31.02 159.96 29.82V22.98H158.4C158.1 27.16 156.28 30.18 152.92 32.06L151.88 30.4C154.74 28.94 156.3 26.46 156.58 22.98H154.08V14.42ZM162.54 21.22V16.2H155.92V21.22H162.54ZM149.44 14.2C150.84 15.9 151.94 17.4 152.72 18.68L151.22 19.74C150.4 18.36 149.3 16.84 147.9 15.16L149.44 14.2ZM151.18 22.48L152.84 23.14C151.84 26.14 150.7 28.94 149.46 31.58L147.74 30.84C149.06 28.12 150.22 25.32 151.18 22.48Z" fill="#535353"/>
</svg>
