<svg width="19" height="17" viewBox="0 0 19 17" fill="none" xmlns="http://www.w3.org/2000/svg">
<path d="M17.8039 6.58992C18.2203 6.58992 18.5958 6.33907 18.7554 5.95414C18.9149 5.56964 18.8266 5.12654 18.5323 4.83185L13.8171 0.117083C13.661 -0.0390278 13.4082 -0.0390278 13.2521 0.117083L12.3606 1.00863C12.2045 1.16474 12.2045 1.41772 12.3606 1.57362L15.3177 4.53054H0.394769C0.176855 4.53054 0 4.70718 0 4.9253V6.19536C0 6.41328 0.176641 6.59013 0.394769 6.59013H17.8039V6.58992ZM18.6005 10.3077H1.19628C0.779914 10.3077 0.404392 10.5586 0.244859 10.9435C0.0853264 11.328 0.173647 11.7711 0.467905 12.0658L5.1831 16.7808C5.33921 16.9369 5.59198 16.9369 5.74809 16.7808L6.63964 15.8892C6.79575 15.7331 6.79575 15.4801 6.63964 15.3242L3.68251 12.3671H18.6005C18.8212 12.3671 19 12.1881 19 11.9676V10.7074C19 10.4867 18.8212 10.3077 18.6005 10.3077Z" fill="#06A0B4"/>
</svg>
