<svg width="16" height="17" viewBox="0 0 16 17" fill="none" xmlns="http://www.w3.org/2000/svg">
<path d="M8.48796 0C8.54104 -2.4916e-09 8.5936 0.0104694 8.64264 0.0308106C8.69168 0.0511518 8.73623 0.0809664 8.77377 0.118552C8.8113 0.156138 8.84107 0.200758 8.86138 0.249866C8.8817 0.298974 8.89215 0.351608 8.89215 0.404762V1.21429C8.89215 1.26744 8.8817 1.32007 8.86138 1.36918C8.84107 1.41829 8.8113 1.46291 8.77377 1.5005C8.73623 1.53808 8.69168 1.5679 8.64264 1.58824C8.5936 1.60858 8.54104 1.61905 8.48796 1.61905H1.61675V15.381H8.48796C8.54104 15.381 8.5936 15.3914 8.64264 15.4118C8.69168 15.4321 8.73623 15.4619 8.77377 15.4995C8.8113 15.5371 8.84107 15.5817 8.86138 15.6308C8.8817 15.6799 8.89215 15.7326 8.89215 15.7857V16.5952C8.89215 16.6484 8.8817 16.701 8.86138 16.7501C8.84107 16.7992 8.8113 16.8439 8.77377 16.8814C8.73623 16.919 8.69168 16.9488 8.64264 16.9692C8.5936 16.9895 8.54104 17 8.48796 17H1.61675C1.20196 17 0.803031 16.8403 0.502483 16.5541C0.201935 16.2678 0.0227607 15.8768 0.00202094 15.4619L0 15.381V1.61905C-3.22684e-07 1.20366 0.159426 0.80417 0.445304 0.503195C0.731182 0.202221 1.12164 0.022793 1.53592 0.00202381L1.61675 0H8.48796ZM12.1746 4.16621L15.6449 7.6415C15.8625 7.85943 15.9892 8.15206 15.9993 8.46006C16.0095 8.76807 15.9023 9.06841 15.6995 9.30021L15.6449 9.3585L12.1746 12.8338C12.0988 12.9097 11.996 12.9523 11.8888 12.9523C11.7816 12.9523 11.6788 12.9097 11.603 12.8338L11.0315 12.2615C10.9557 12.1855 10.9132 12.0826 10.9132 11.9753C10.9132 11.868 10.9557 11.765 11.0315 11.6891L13.4069 9.30952H5.25445C5.20137 9.30952 5.14881 9.29906 5.09978 9.27871C5.05074 9.25837 5.00618 9.22856 4.96865 9.19097C4.93112 9.15339 4.90134 9.10877 4.88103 9.05966C4.86072 9.01055 4.85026 8.95792 4.85026 8.90476V8.09524C4.85026 8.04208 4.86072 7.98945 4.88103 7.94034C4.90134 7.89123 4.93112 7.84661 4.96865 7.80903C5.00618 7.77144 5.05074 7.74163 5.09978 7.72129C5.14881 7.70095 5.20137 7.69048 5.25445 7.69048H13.4069L11.0315 5.31088C10.9557 5.23498 10.9132 5.13204 10.9132 5.02471C10.9132 4.91739 10.9557 4.81445 11.0315 4.73855L11.603 4.16621C11.6788 4.09033 11.7816 4.04771 11.8888 4.04771C11.996 4.04771 12.0988 4.09033 12.1746 4.16621Z" fill="#535353"/>
</svg>
