<svg width="78" height="56" viewBox="0 0 78 56" fill="none" xmlns="http://www.w3.org/2000/svg">
<mask id="mask0_518_1175" style="mask-type:alpha" maskUnits="userSpaceOnUse" x="0" y="0" width="78" height="56">
<rect width="78" height="56" rx="6" fill="#D9D9D9"/>
</mask>
<g mask="url(#mask0_518_1175)">
<path d="M43.5 69C24.9979 69 10 54.002 10 35.5C10 16.9979 24.9979 2 43.5 2C62.002 2 77 16.9979 77 35.5C77 54.002 62.002 69 43.5 69ZM43.5 62.3C50.6078 62.3 57.4245 59.4764 62.4505 54.4505C67.4764 49.4245 70.3 42.6078 70.3 35.5C70.3 28.3922 67.4764 21.5755 62.4505 16.5495C57.4245 11.5236 50.6078 8.7 43.5 8.7C36.3922 8.7 29.5755 11.5236 24.5495 16.5495C19.5236 21.5755 16.7 28.3922 16.7 35.5C16.7 42.6078 19.5236 49.4245 24.5495 54.4505C29.5755 59.4764 36.3922 62.3 43.5 62.3ZM38.8837 23.4902L55.2283 34.3844C55.4122 34.5068 55.5629 34.6726 55.6671 34.8672C55.7714 35.0618 55.826 35.2792 55.826 35.5C55.826 35.7208 55.7714 35.9381 55.6671 36.1328C55.5629 36.3274 55.4122 36.4932 55.2283 36.6155L38.8803 47.5098C38.6788 47.6434 38.4448 47.7199 38.2032 47.7313C37.9616 47.7428 37.7215 47.6886 37.5082 47.5746C37.2949 47.4605 37.1165 47.2909 36.9918 47.0837C36.8671 46.8765 36.8008 46.6394 36.8 46.3975V24.6024C36.8004 24.3601 36.8666 24.1224 36.9915 23.9146C37.1163 23.7069 37.2952 23.5369 37.509 23.4228C37.7228 23.3087 37.9636 23.2547 38.2057 23.2665C38.4478 23.2784 38.6821 23.3557 38.8837 23.4902Z" fill="#B0D8FF"/>
</g>
</svg>
