<svg width="220" height="46" viewBox="0 0 220 46" fill="none" xmlns="http://www.w3.org/2000/svg">
<path d="M76.118 21.2487C76.6046 21.2487 77 20.8533 77 20.3667V16.511C77 13.9915 74.9509 11.9424 72.4314 11.9424H57.5686C55.0491 11.9424 53 13.9915 53 16.511V26.3494C53 28.8689 55.0491 30.9181 57.5686 30.9181H72.4299C74.9494 30.9181 76.9985 28.8689 76.9985 26.3494C76.9985 25.8629 76.6031 25.4675 76.1166 25.4675C75.63 25.4675 75.2346 25.8629 75.2346 26.3494C75.2346 27.8958 73.9763 29.1541 72.4299 29.1541H57.5686C56.0222 29.1541 54.7639 27.8958 54.7639 26.3494V16.511C54.7639 14.9646 56.0222 13.7063 57.5686 13.7063H72.4299C73.9763 13.7063 75.2346 14.9646 75.2346 16.511V20.3667C75.236 20.8547 75.6315 21.2487 76.118 21.2487ZM71.5303 32.2939H58.4697C57.9832 32.2939 57.5877 32.6894 57.5877 33.1759C57.5877 33.6625 57.9832 34.0579 58.4697 34.0579H71.5303C72.0168 34.0579 72.4123 33.6625 72.4123 33.1759C72.4123 32.6894 72.0168 32.2939 71.5303 32.2939Z" fill="#535353"/>
<path d="M59.6795 24.1634C59.456 24.1634 59.2341 24.0796 59.0621 23.9121C58.7137 23.571 58.7078 23.0125 59.0488 22.6655L62.1887 19.461C62.8149 18.8216 63.8453 18.8113 64.4847 19.4375L66.9851 21.8865L69.6899 19.1362C69.8542 18.9696 70.0778 18.875 70.3117 18.8731C70.5457 18.8711 70.7708 18.9621 70.9379 19.1259C71.2848 19.4669 71.2892 20.0255 70.9481 20.3739L68.1464 23.2227C67.5202 23.8606 66.4912 23.8694 65.8518 23.2447L63.3514 20.7943L60.3086 23.8988C60.2268 23.9829 60.129 24.0496 60.0209 24.095C59.9128 24.1405 59.7967 24.1638 59.6795 24.1634Z" fill="#535353"/>
<path d="M90.76 16.58C90.34 17.18 89.9 17.68 89.44 18.1H92.32C92.4 17.6 92.46 17.1 92.5 16.58H90.76ZM91.8 19.84H88.08V18.1H88.98L88.04 16.92C88.96 16.1 89.78 14.94 90.46 13.42L92.16 13.78C92.02 14.18 91.86 14.54 91.7 14.9H97.18V16.58H94.32C94.28 17.12 94.24 17.62 94.16 18.1H97.74V19.84H93.76C93.72 19.94 93.7 20.04 93.68 20.12C95.16 20.88 96.4 21.64 97.44 22.4L96.26 23.6H103.9V32.1H101.98V31.32H92.54V32.1H90.64V23.88C90.12 24.2 89.58 24.52 88.98 24.8L87.7 23.26C89.78 22.34 91.12 21.24 91.76 19.92L91.8 19.84ZM92.54 29.64H101.98V28.32H92.54V29.64ZM92.54 26.68H101.98V25.28H92.54V26.68ZM91.04 23.6H95.92C95.16 22.92 94.22 22.22 93.06 21.5C92.58 22.26 91.9 22.96 91.04 23.6ZM98.36 14.92H105.36V22.48H98.36V14.92ZM103.5 20.82V16.6H100.22V20.82H103.5ZM110.84 25.32V26.78H114.96V25.32H110.84ZM114.96 23.76V22.22H110.84V23.76H114.96ZM110.84 28.36V32.1H109V20.56H116.8V29.88C116.8 31.26 116.14 31.96 114.86 31.96H113.3L112.84 30.18L114.26 30.26C114.72 30.26 114.96 30 114.96 29.48V28.36H110.84ZM123.62 22.46H120.36C118.96 22.46 118.28 21.7 118.28 20.18V13.68H120.16V16.04C122.22 15.72 123.9 15.4 125.2 15.04L125.82 16.72C124.18 17.1 122.3 17.46 120.16 17.78V19.78C120.16 20.42 120.4 20.76 120.88 20.76H123.26C123.58 20.76 123.8 20.66 123.94 20.46C124.1 20.22 124.22 19.54 124.26 18.42L126.04 19C125.88 20.66 125.6 21.66 125.24 22C124.88 22.3 124.34 22.46 123.62 22.46ZM120.16 27.08V29.52C120.16 29.88 120.38 30.06 120.86 30.06H123.28C123.6 30.06 123.84 29.96 123.98 29.78C124.14 29.54 124.26 28.86 124.32 27.74L126.04 28.3C125.88 29.98 125.62 30.98 125.26 31.3C124.92 31.6 124.38 31.76 123.64 31.76H120.32C118.96 31.76 118.28 31.14 118.28 29.94V23.16H120.16V25.36C122.04 25.16 123.72 24.82 125.2 24.38L125.82 26.08C124.06 26.56 122.16 26.88 120.16 27.08ZM115.36 15C116.54 16.58 117.44 17.96 118.08 19.12L116.52 20.24C116.32 19.84 116.1 19.42 115.86 19C113.78 19.32 111.28 19.56 108.36 19.72L107.84 18.14C108.18 18.02 108.46 17.86 108.7 17.66C109.92 16.3 110.86 14.94 111.5 13.58L113.32 14.12C112.48 15.76 111.54 17.06 110.5 18.06C111.9 17.98 113.42 17.82 115.04 17.62C114.68 17.06 114.3 16.5 113.9 15.92L115.36 15ZM139.26 17.7C138.62 19.26 137.82 20.56 136.84 21.6L135.64 20.12C137 18.46 137.92 16.24 138.4 13.46L140.36 13.82C140.22 14.54 140.06 15.2 139.9 15.84H145.58V17.7H139.26ZM141.4 18.72C142.44 20.04 143.22 21.18 143.78 22.16L142.2 23.24C141.62 22.16 140.84 20.98 139.86 19.68L141.4 18.72ZM133.22 13.56H135.12V23.52H133.22V13.56ZM129.1 14.54H130.98V22.78H129.1V14.54ZM144.08 24.26V29.78H146.08V31.48H127.86V29.78H129.96V24.26H144.08ZM131.8 29.78H134V25.98H131.8V29.78ZM135.84 29.78H138.12V25.98H135.84V29.78ZM139.96 29.78H142.24V25.98H139.96V29.78ZM149.34 13.92C150.44 14.82 151.36 15.72 152.12 16.62L150.86 17.88C150.2 17.04 149.26 16.12 148.04 15.16L149.34 13.92ZM149.02 18.82C150.08 19.8 150.98 20.76 151.72 21.72L150.48 22.98C149.82 22.06 148.9 21.1 147.72 20.06L149.02 18.82ZM150.38 24.3L151.98 24.92C151.26 27.36 150.44 29.66 149.54 31.82L147.82 31.08C148.8 28.88 149.66 26.62 150.38 24.3ZM159.68 14.54V26.9H158V16.16H154.26V27.02H152.58V14.54H159.68ZM157.54 27.72C158.7 28.76 159.66 29.78 160.46 30.82L159.2 32.06C158.54 31.06 157.6 29.98 156.4 28.82L157.54 27.72ZM155.36 17.32H156.92V23.6C156.86 25.9 156.5 27.74 155.82 29.12C155.16 30.4 154.08 31.38 152.6 32.1L151.62 30.52C153.04 29.84 154 28.98 154.52 27.94C155.02 26.82 155.3 25.38 155.36 23.6V17.32ZM163.78 31.9H161.58L161.18 30.14C161.86 30.22 162.52 30.26 163.16 30.26C163.56 30.26 163.78 30 163.78 29.52V13.72H165.56V29.96C165.56 31.24 164.96 31.9 163.78 31.9ZM160.86 15.36H162.52V27.72H160.86V15.36Z" fill="#535353"/>
</svg>
