<svg width="75" height="74" viewBox="0 0 75 74" fill="none" xmlns="http://www.w3.org/2000/svg">
<g filter="url(#filter0_d_533_2464)">
<path d="M37.5 28.6467C39.2956 28.6467 41.0509 28.1142 42.544 27.1166C44.037 26.119 45.2006 24.701 45.8878 23.0421C46.575 21.3831 46.7548 19.5576 46.4045 17.7965C46.0541 16.0354 45.1895 14.4176 43.9197 13.1479C42.65 11.8782 41.0323 11.0135 39.2712 10.6632C37.51 10.3129 35.6846 10.4927 34.0256 11.1799C32.3666 11.867 30.9487 13.0307 29.9511 14.5237C28.9535 16.0168 28.421 17.7721 28.421 19.5677C28.428 21.9735 29.3867 24.2787 31.0878 25.9798C32.789 27.681 35.0942 28.6397 37.5 28.6467ZM37.5 15.7519C38.2547 15.7519 38.9924 15.9757 39.6199 16.395C40.2474 16.8143 40.7365 17.4102 41.0253 18.1075C41.3141 18.8047 41.3897 19.572 41.2424 20.3121C41.0952 21.0523 40.7318 21.7322 40.1981 22.2659C39.6645 22.7995 38.9846 23.163 38.2444 23.3102C37.5042 23.4574 36.737 23.3819 36.0397 23.0931C35.3425 22.8042 34.7465 22.3152 34.3273 21.6877C33.908 21.0602 33.6842 20.3224 33.6842 19.5677C33.6842 19.0666 33.7829 18.5704 33.9746 18.1075C34.1664 17.6445 34.4475 17.2239 34.8018 16.8695C35.1561 16.5152 35.5768 16.2342 36.0397 16.0424C36.5027 15.8506 36.9989 15.7519 37.5 15.7519ZM55.921 40.1203C54.1242 40.1204 52.3679 40.6535 50.8743 41.6523C49.3807 42.6511 48.2171 44.0705 47.5307 45.731C46.8443 47.3915 46.666 49.2184 47.0185 50.9802C47.3709 52.7421 48.2382 54.3597 49.5106 55.6284C50.7829 56.897 52.4031 57.7597 54.166 58.107C55.9289 58.4543 57.7552 58.2708 59.4137 57.5796C61.0721 56.8884 62.4883 55.7206 63.4827 54.2241C64.4771 52.7276 65.0052 50.9697 65 49.173C64.993 46.7697 64.0334 44.4671 62.3315 42.7702C60.6296 41.0733 58.3243 40.1203 55.921 40.1203ZM55.921 52.9888C55.1663 52.9888 54.4286 52.765 53.8011 52.3457C53.1736 51.9264 52.6845 51.3305 52.3957 50.6332C52.1069 49.936 52.0313 49.1687 52.1785 48.4286C52.3258 47.6884 52.6892 47.0085 53.2228 46.4748C53.7565 45.9412 54.4364 45.5777 55.1766 45.4305C55.9168 45.2833 56.684 45.3588 57.3813 45.6477C58.0785 45.9365 58.6744 46.4255 59.0937 47.053C59.513 47.6805 59.7368 48.4183 59.7368 49.173C59.7368 50.185 59.3348 51.1556 58.6192 51.8712C57.9036 52.5868 56.933 52.9888 55.921 52.9888ZM19.0789 40.1203C17.2821 40.1204 15.5258 40.6535 14.0322 41.6523C12.5386 42.6511 11.375 44.0705 10.6886 45.731C10.0022 47.3915 9.82394 49.2184 10.1764 50.9802C10.5288 52.7421 11.3961 54.3597 12.6685 55.6284C13.9408 56.897 15.561 57.7597 17.3239 58.107C19.0868 58.4543 20.9131 58.2708 22.5715 57.5796C24.23 56.8884 25.6462 55.7206 26.6406 54.2241C27.635 52.7276 28.1631 50.9697 28.1579 49.173C28.1509 46.7697 27.1913 44.4671 25.4894 42.7702C23.7875 41.0733 21.4822 40.1203 19.0789 40.1203ZM19.0789 52.9888C18.3242 52.9888 17.5865 52.765 16.959 52.3457C16.3315 51.9264 15.8424 51.3305 15.5536 50.6332C15.2648 49.936 15.1892 49.1687 15.3364 48.4286C15.4837 47.6884 15.8471 47.0085 16.3807 46.4748C16.9144 45.9412 17.5943 45.5777 18.3345 45.4305C19.0747 45.2833 19.8419 45.3588 20.5392 45.6477C21.2364 45.9365 21.8323 46.4255 22.2516 47.053C22.6709 47.6805 22.8947 48.4183 22.8947 49.173C22.8947 50.185 22.4927 51.1556 21.7771 51.8712C21.0615 52.5868 20.0909 52.9888 19.0789 52.9888ZM55.421 36.3572C55.544 36.9605 55.8748 37.5017 56.3556 37.8863C56.8364 38.271 57.4369 38.4749 58.0526 38.4625H58.5789C58.9176 38.3934 59.2394 38.2583 59.5259 38.0649C59.8124 37.8714 60.0579 37.6234 60.2485 37.3351C60.4391 37.0467 60.5711 36.7236 60.6368 36.3842C60.7025 36.0449 60.7007 35.6959 60.6315 35.3572C59.533 30.2167 56.7556 25.5876 52.7368 22.1993C52.2029 21.7456 51.5106 21.5227 50.8123 21.5794C50.114 21.6362 49.4668 21.968 49.0131 22.5019C48.5595 23.0359 48.3365 23.7281 48.3932 24.4264C48.45 25.1248 48.7818 25.772 49.3158 26.2256C52.4093 28.8398 54.5551 32.4007 55.421 36.3572ZM44.7105 56.7782C42.3719 57.7715 39.8531 58.2702 37.3124 58.243C34.7717 58.2158 32.2642 57.6634 29.9473 56.6203C29.6329 56.4769 29.2932 56.3969 28.9478 56.3847C28.6024 56.3726 28.2579 56.4286 27.9341 56.5495C27.6103 56.6705 27.3136 56.854 27.0607 57.0897C26.8079 57.3253 26.6039 57.6085 26.4605 57.923C26.3171 58.2375 26.237 58.5771 26.2248 58.9225C26.2127 59.268 26.2687 59.6124 26.3897 59.9362C26.5106 60.26 26.6942 60.5568 26.9298 60.8096C27.1655 61.0625 27.4486 61.2664 27.7631 61.4098C30.7476 62.7585 33.9794 63.4735 37.2542 63.5098C40.5291 63.546 43.7758 62.9026 46.7894 61.6203C47.1104 61.4855 47.4014 61.2883 47.6457 61.0401C47.8899 60.792 48.0824 60.4978 48.2122 60.1747C48.3419 59.8517 48.4062 59.506 48.4014 59.1579C48.3966 58.8098 48.3228 58.4661 48.1842 58.1467C48.0468 57.828 47.8478 57.5396 47.5986 57.2982C47.3494 57.0567 47.0549 56.867 46.732 56.7398C46.4092 56.6126 46.0644 56.5505 45.7174 56.5571C45.3705 56.5637 45.0283 56.6389 44.7105 56.7782ZM16.4473 38.173C16.6306 38.1989 16.8167 38.1989 17 38.173C17.6119 38.1866 18.2095 37.9865 18.6898 37.607C19.1701 37.2276 19.5032 36.6925 19.6315 36.094C20.5111 32.0819 22.7063 28.4787 25.8684 25.8572C26.4027 25.4154 26.7411 24.7807 26.8101 24.0908C26.8791 23.401 26.6731 22.7118 26.2368 22.173C26.0178 21.9046 25.7479 21.6821 25.4426 21.5182C25.1374 21.3544 24.8028 21.2524 24.4581 21.2182C24.1133 21.184 23.7652 21.2182 23.4337 21.3188C23.1022 21.4194 22.7938 21.5845 22.5263 21.8046C18.4489 25.169 15.6142 29.8007 14.4736 34.9625C14.3878 35.303 14.371 35.6573 14.4242 36.0045C14.4775 36.3517 14.5996 36.6847 14.7836 36.9839C14.9675 37.2831 15.2095 37.5424 15.4952 37.7466C15.781 37.9509 16.1047 38.0958 16.4473 38.173Z" fill="#308DE9"/>
</g>
<defs>
<filter id="filter0_d_533_2464" x="0" y="0.48877" width="75" height="73.0225" filterUnits="userSpaceOnUse" color-interpolation-filters="sRGB">
<feFlood flood-opacity="0" result="BackgroundImageFix"/>
<feColorMatrix in="SourceAlpha" type="matrix" values="0 0 0 0 0 0 0 0 0 0 0 0 0 0 0 0 0 0 127 0" result="hardAlpha"/>
<feOffset/>
<feGaussianBlur stdDeviation="5"/>
<feComposite in2="hardAlpha" operator="out"/>
<feColorMatrix type="matrix" values="0 0 0 0 0.343701 0 0 0 0 0.343701 0 0 0 0 0.343701 0 0 0 0.23 0"/>
<feBlend mode="normal" in2="BackgroundImageFix" result="effect1_dropShadow_533_2464"/>
<feBlend mode="normal" in="SourceGraphic" in2="effect1_dropShadow_533_2464" result="shape"/>
</filter>
</defs>
</svg>
