<svg width="75" height="72" viewBox="0 0 75 72" fill="none" xmlns="http://www.w3.org/2000/svg">
<g filter="url(#filter0_d_533_1828)">
<path d="M25.7143 10.4644C34.4946 10.4644 41.4286 12.4444 41.4286 16.3572C41.4286 19.9715 35.5082 21.9358 27.6786 22.2147V43.8572C27.6786 44.5094 27.7218 45.1458 27.8121 45.7744C30.5307 45.6486 33.0018 45.2872 34.8993 44.7451C36.6632 44.2422 37.5 43.6765 37.5 43.8572V42.0894L37.6021 42.109C35.2025 41.6477 33.0611 40.3084 31.596 38.3527C30.1309 36.397 29.4475 33.9654 29.6793 31.5329C29.911 29.1003 31.0412 26.8415 32.8491 25.1976C34.657 23.5537 37.0129 22.6428 39.4564 22.6428C41.9 22.6428 44.2558 23.5537 46.0637 25.1976C47.8717 26.8415 49.0019 29.1003 49.2336 31.5329C49.4653 33.9654 48.7819 36.397 47.3169 38.3527C45.8518 40.3084 43.7103 41.6477 41.3107 42.109L41.4325 42.0894L41.4286 43.8572C41.4286 47.2751 36.1446 49.2158 28.9593 49.6558C30.0642 52.0314 31.8248 54.0419 34.0339 55.4506C36.243 56.8593 38.8086 57.6075 41.4286 57.6072H43.3929C47.0396 57.6072 50.5369 56.1586 53.1156 53.5799C55.6942 51.0013 57.1429 47.5039 57.1429 43.8572V28.8619C54.7189 27.6676 53.2143 24.2772 53.2143 20.4822C53.2143 15.7444 55.5596 11.6429 59.1071 11.6429C62.6546 11.6429 65 15.7444 65 20.4822C65 24.2772 63.4954 27.6636 61.0754 28.8619L61.0714 43.8572C61.0714 48.5459 59.2089 53.0425 55.8935 56.3579C52.5781 59.6732 48.0815 61.5358 43.3929 61.5358H41.4286C37.7721 61.5357 34.2055 60.4024 31.2197 58.2918C28.2339 56.1812 25.9756 53.197 24.7557 49.7501C16.435 49.5969 10 47.6286 10 43.8572V16.3572L10.0275 15.9447C10.4989 12.3108 17.2482 10.4644 25.7143 10.4644ZM13.9286 20.5333V43.8572C13.9286 43.6765 14.7654 44.2422 16.5293 44.7451C18.4818 45.3029 21.0471 45.6722 23.8561 45.7861C23.7851 45.1456 23.7497 44.5017 23.75 43.8572V22.2147C19.8332 22.0772 16.3918 21.5154 13.9286 20.5333ZM35.3 28.3001C34.5358 29.0637 33.9962 30.0228 33.7402 31.0724C33.4843 32.122 33.5218 33.2218 33.8487 34.2515C34.1756 35.2812 34.7792 36.2013 35.5937 36.9111C36.4082 37.6209 37.4021 38.0931 38.4669 38.2762C39.5316 38.4592 40.6262 38.346 41.631 37.949C42.6358 37.5519 43.512 36.8863 44.1641 36.0249C44.8161 35.1634 45.2187 34.1393 45.328 33.0645C45.4372 31.9896 45.2489 30.9055 44.7836 29.9304L42.5207 32.1894C42.3395 32.377 42.1228 32.5266 41.8831 32.6296C41.6435 32.7325 41.3857 32.7867 41.1249 32.789C40.8641 32.7912 40.6054 32.7415 40.364 32.6428C40.1226 32.544 39.9033 32.3981 39.7189 32.2137C39.5344 32.0293 39.3886 31.81 39.2898 31.5686C39.191 31.3271 39.1413 31.0685 39.1436 30.8077C39.1459 30.5469 39.2001 30.2891 39.303 30.0495C39.406 29.8098 39.5556 29.5931 39.7432 29.4119L42.0061 27.149C40.906 26.6231 39.6698 26.4514 38.468 26.6575C37.2662 26.8637 36.158 27.4376 35.2961 28.3001H35.3ZM59.1071 15.5715C58.3175 15.5715 57.1429 17.6261 57.1429 20.4822C57.1429 23.3383 58.3175 25.3929 59.1071 25.3929C59.8968 25.3929 61.0714 23.3383 61.0714 20.4822C61.0714 17.6261 59.8968 15.5715 59.1071 15.5715ZM25.7143 14.3929C22.1904 14.3929 18.9061 14.7897 16.5293 15.4694C16.0776 15.5986 15.6319 15.7481 15.1936 15.9172L14.1054 16.3572L15.0482 16.7422C15.3232 16.8522 15.6493 16.974 16.0304 17.0958L16.5293 17.2451C18.9061 17.9286 22.1864 18.3215 25.7143 18.3215C29.2382 18.3215 32.5225 17.9247 34.8993 17.2451C35.4257 17.0958 35.8736 16.9386 36.235 16.7972L37.3232 16.3572L36.3804 15.9722C36.0569 15.8436 35.7294 15.7257 35.3982 15.6186L34.8993 15.4694C32.5225 14.7858 29.2421 14.3929 25.7143 14.3929Z" fill="#308DE9"/>
</g>
<defs>
<filter id="filter0_d_533_1828" x="0" y="0.464355" width="75" height="71.0713" filterUnits="userSpaceOnUse" color-interpolation-filters="sRGB">
<feFlood flood-opacity="0" result="BackgroundImageFix"/>
<feColorMatrix in="SourceAlpha" type="matrix" values="0 0 0 0 0 0 0 0 0 0 0 0 0 0 0 0 0 0 127 0" result="hardAlpha"/>
<feOffset/>
<feGaussianBlur stdDeviation="5"/>
<feComposite in2="hardAlpha" operator="out"/>
<feColorMatrix type="matrix" values="0 0 0 0 0.343701 0 0 0 0 0.343701 0 0 0 0 0.343701 0 0 0 0.23 0"/>
<feBlend mode="normal" in2="BackgroundImageFix" result="effect1_dropShadow_533_1828"/>
<feBlend mode="normal" in="SourceGraphic" in2="effect1_dropShadow_533_1828" result="shape"/>
</filter>
</defs>
</svg>
