<svg width="18" height="20" viewBox="0 0 18 20" fill="none" xmlns="http://www.w3.org/2000/svg">
<path d="M17.2637 13.2087C16.9204 13.0719 16.282 13.2988 16.1516 13.6274C15.0177 16.4863 12.307 18.3337 9.2459 18.3337C5.14846 18.3337 1.81504 14.9811 1.81504 10.8609C1.81504 6.74039 5.14846 3.38821 9.2459 3.38821C10.6375 3.38821 11.9936 3.77698 13.1683 4.51264C13.1903 4.5262 13.2138 4.53538 13.2365 4.54614L11.2875 5.2523C10.9569 5.37192 10.7372 5.93176 10.8564 6.26389C10.9501 6.52467 11.3393 6.78387 11.5997 6.78387C11.6714 6.78387 11.8409 6.77148 11.9123 6.74557L15.4862 5.16059C15.6528 5.09996 15.7896 4.97518 15.8649 4.81368C15.9403 4.65219 15.9491 4.46679 15.8889 4.29891L14.6177 0.751751C14.4921 0.401645 14.1811 -0.0692274 13.6639 0.00851815C13.2983 0.0635486 13.0391 0.568744 13.1647 0.91883L13.8693 2.885C12.4502 2.02852 10.8269 1.57275 9.16181 1.57275C4.10981 1.57275 0 5.70568 0 10.786C0 15.8667 4.10981 20 9.16181 20C12.9358 20 16.2776 17.7224 17.6756 14.1976C17.8128 13.8519 17.6071 13.3467 17.2637 13.2087Z" fill="#535353"/>
</svg>
