<svg width="24" height="24" viewBox="0 0 24 24" fill="none" xmlns="http://www.w3.org/2000/svg">
<path d="M15.4286 2.03816C15.4286 1.81083 15.5189 1.59281 15.6796 1.43206C15.8404 1.27132 16.0584 1.18101 16.2857 1.18101H18.8571C20.2211 1.18101 21.5292 1.72285 22.4937 2.68732C23.4582 3.65179 24 4.9599 24 6.32387V13.181C24 14.545 23.4582 15.8531 22.4937 16.8176C21.5292 17.782 20.2211 18.3239 18.8571 18.3239H16.2857C16.0584 18.3239 15.8404 18.2336 15.6796 18.0728C15.5189 17.9121 15.4286 17.6941 15.4286 17.4667C15.4286 17.2394 15.5189 17.0214 15.6796 16.8606C15.8404 16.6999 16.0584 16.6096 16.2857 16.6096H18.8571C19.7221 16.6099 20.5553 16.2832 21.1895 15.695C21.8238 15.1069 22.2123 14.3007 22.2771 13.4382L22.2857 13.181V6.32387C22.286 5.45888 21.9593 4.62576 21.3711 3.9915C20.783 3.35725 19.9768 2.96874 19.1143 2.90387L18.8571 2.8953H16.2857C16.0584 2.8953 15.8404 2.80499 15.6796 2.64425C15.5189 2.4835 15.4286 2.26548 15.4286 2.03816ZM6.97371 10.8714L7.07314 10.7514L11.3931 6.43137C11.4788 6.3438 11.5825 6.27603 11.6972 6.23279C11.8118 6.18956 11.9344 6.17191 12.0566 6.18108L12.216 6.20851L12.3703 6.26337L12.4903 6.33194L12.6069 6.43137L16.9269 10.7514L17.0263 10.8714C17.14 11.0365 17.1923 11.2362 17.174 11.4359C17.1557 11.6356 17.068 11.8225 16.9261 11.9642C16.7842 12.1058 16.5972 12.1933 16.3975 12.2113C16.1978 12.2293 15.9981 12.1768 15.8331 12.0628L15.7149 11.9651L12.8571 9.10566L12.8589 22.3892C12.8593 22.6033 12.7794 22.8099 12.6351 22.9682C12.4908 23.1265 12.2925 23.225 12.0792 23.2444C11.8658 23.2637 11.653 23.2025 11.4826 23.0728C11.3121 22.9431 11.1964 22.7542 11.1583 22.5434L11.1446 22.3892L11.1429 9.10737L8.28686 11.9651C8.14482 12.1068 7.95756 12.1942 7.7577 12.2121C7.55784 12.2299 7.35806 12.1771 7.19314 12.0628L7.07314 11.9651C6.93141 11.823 6.84401 11.6358 6.82615 11.4359C6.8083 11.2361 6.86112 11.0363 6.97543 10.8714H6.97371ZM10.7143 2.03816C10.7143 1.69716 10.8497 1.37014 11.0909 1.12902C11.332 0.8879 11.659 0.752441 12 0.752441C12.341 0.752441 12.668 0.8879 12.9091 1.12902C13.1503 1.37014 13.2857 1.69716 13.2857 2.03816C13.2857 2.37915 13.1503 2.70617 12.9091 2.94729C12.668 3.18841 12.341 3.32387 12 3.32387C11.659 3.32387 11.332 3.18841 11.0909 2.94729C10.8497 2.70617 10.7143 2.37915 10.7143 2.03816ZM0 6.32387C0 4.9599 0.541835 3.65179 1.50631 2.68732C2.47078 1.72285 3.77889 1.18101 5.14286 1.18101H7.71429C7.94161 1.18101 8.15963 1.27132 8.32038 1.43206C8.48112 1.59281 8.57143 1.81083 8.57143 2.03816C8.57143 2.26548 8.48112 2.4835 8.32038 2.64425C8.15963 2.80499 7.94161 2.8953 7.71429 2.8953H5.14286C4.27787 2.89502 3.44474 3.22171 2.81049 3.80986C2.17624 4.39802 1.78773 5.20417 1.72286 6.06673L1.71429 6.32387V13.181C1.71401 14.046 2.0407 14.8791 2.62885 15.5134C3.21701 16.1476 4.02316 16.5361 4.88571 16.601L5.14286 16.6096H7.71429C7.94161 16.6096 8.15963 16.6999 8.32038 16.8606C8.48112 17.0214 8.57143 17.2394 8.57143 17.4667C8.57143 17.6941 8.48112 17.9121 8.32038 18.0728C8.15963 18.2336 7.94161 18.3239 7.71429 18.3239H5.14286C3.77889 18.3239 2.47078 17.782 1.50631 16.8176C0.541835 15.8531 0 14.545 0 13.181V6.32387Z" fill="white"/>
</svg>
