<svg width="18" height="23" viewBox="0 0 18 23" fill="none" xmlns="http://www.w3.org/2000/svg">
<path d="M13.7756 12.5778L13.6762 12.6978L9.35596 17.0178C9.27031 17.1054 9.16655 17.1732 9.05194 17.2164C8.93733 17.2597 8.81465 17.2773 8.69251 17.2681L8.53307 17.2407L8.37878 17.1858L8.25877 17.1173L8.1422 17.0178L3.82201 12.6978L3.72257 12.5778C3.60882 12.4127 3.55655 12.213 3.57486 12.0133C3.59317 11.8136 3.6809 11.6267 3.82278 11.485C3.96467 11.3434 4.15173 11.2559 4.35142 11.2379C4.55112 11.2199 4.75081 11.2724 4.91577 11.3864L5.03406 11.4841L7.8919 14.3436L7.89018 1.06006C7.88979 0.845868 7.96961 0.639291 8.11392 0.481006C8.25824 0.322721 8.45659 0.224202 8.66992 0.204848C8.88324 0.185495 9.09608 0.246709 9.26653 0.376439C9.43697 0.50617 9.55267 0.69501 9.59083 0.905776L9.60455 1.06006L9.60626 14.3418L12.4624 11.4841C12.6044 11.3424 12.7917 11.255 12.9916 11.2371C13.1914 11.2193 13.3912 11.2721 13.5561 11.3864L13.6762 11.4841C13.8179 11.6262 13.9053 11.8134 13.9232 12.0133C13.941 12.2131 13.8882 12.4129 13.7739 12.5778L13.7756 12.5778ZM10.0349 21.4111C10.0349 21.7521 9.89939 22.0791 9.65826 22.3202C9.41713 22.5613 9.09009 22.6968 8.74908 22.6968C8.40807 22.6968 8.08103 22.5613 7.8399 22.3202C7.59877 22.0791 7.46331 21.7521 7.46331 21.4111C7.46331 21.0701 7.59878 20.743 7.8399 20.5019C8.08103 20.2608 8.40807 20.1253 8.74908 20.1253C9.09009 20.1253 9.41713 20.2608 9.65826 20.5019C9.89939 20.743 10.0349 21.0701 10.0349 21.4111Z" fill="#535353"/>
<path d="M7.1776 21.9652C7.33836 21.8044 7.42866 21.5864 7.42866 21.3591C7.42866 21.1317 7.33836 20.9137 7.1776 20.753C7.01685 20.5922 6.79884 20.5019 6.57151 20.5019L0.85718 20.5019C0.383793 20.5019 3.6398e-05 20.8857 3.63566e-05 21.3591C3.63152e-05 21.8325 0.383793 22.2162 0.85718 22.2162L6.57151 22.2162C6.79884 22.2162 7.01685 22.1259 7.1776 21.9652Z" fill="#535353"/>
<path d="M11.143 22.2162L16.8573 22.2162C17.3307 22.2162 17.7145 21.8325 17.7145 21.3591C17.7145 20.8857 17.3307 20.5019 16.8573 20.5019L11.143 20.5019C10.9157 20.5019 10.6977 20.5922 10.5369 20.753C10.3762 20.9137 10.2859 21.1317 10.2859 21.3591C10.2859 21.5864 10.3762 21.8044 10.5369 21.9652C10.6977 22.1259 10.9157 22.2162 11.143 22.2162Z" fill="#535353"/>
</svg>
