<svg width="30" height="30" viewBox="0 0 30 30" fill="none" xmlns="http://www.w3.org/2000/svg">
<circle cx="15" cy="15" r="14" fill="#F1FDFF" stroke="#06A0B4" stroke-width="1.68"/>
<path d="M15.1495 15.1294C17.3667 15.1294 19.1707 13.3254 19.1707 11.1081C19.1707 10.78 18.9046 10.5157 18.5783 10.5157C18.2519 10.5157 17.9858 10.7818 17.9858 11.1081C17.9858 12.6727 16.714 13.9445 15.1495 13.9445C13.585 13.9445 12.3132 12.6727 12.3132 11.1081C12.3132 9.54365 13.585 8.27182 15.1495 8.27182C15.5521 8.27182 15.9406 8.35342 16.3042 8.51661C16.6022 8.64964 16.9535 8.51661 17.0865 8.21683C17.2195 7.91883 17.0865 7.56762 16.7867 7.43458C16.2688 7.20399 15.7189 7.08691 15.1477 7.08691C12.9304 7.08691 11.1265 8.89088 11.1265 11.1081C11.1265 13.3254 12.9322 15.1294 15.1495 15.1294ZM16.9836 15.8283H13.3154C10.5518 15.8283 8.30434 18.0757 8.30434 20.8393V21.8238C8.30434 22.1519 8.57041 22.4162 8.89679 22.4162C9.22317 22.4162 9.48924 22.1501 9.48924 21.8238V20.8393C9.48924 18.7302 11.2063 17.0132 13.3154 17.0132H16.9818C19.0909 17.0132 20.8079 18.7302 20.8079 20.8393V21.8238C20.8079 22.1519 21.074 22.4162 21.4004 22.4162C21.7286 22.4162 21.9929 22.1501 21.9929 21.8238V20.8393C21.9946 18.0757 19.7472 15.8283 16.9836 15.8283Z" fill="#06A0B4"/>
<path d="M17.365 9.33794C17.365 9.41574 17.3803 9.49278 17.4101 9.56466C17.4398 9.63654 17.4835 9.70185 17.5385 9.75686C17.5935 9.81188 17.6588 9.85552 17.7307 9.88529C17.8026 9.91507 17.8796 9.93039 17.9574 9.93039C18.0352 9.93039 18.1123 9.91507 18.1842 9.88529C18.256 9.85552 18.3213 9.81188 18.3764 9.75686C18.4314 9.70185 18.475 9.63654 18.5048 9.56466C18.5346 9.49278 18.5499 9.41574 18.5499 9.33794C18.5499 9.26013 18.5346 9.18309 18.5048 9.11121C18.475 9.03934 18.4314 8.97402 18.3764 8.91901C18.3213 8.86399 18.256 8.82035 18.1842 8.79058C18.1123 8.76081 18.0352 8.74548 17.9574 8.74548C17.8796 8.74548 17.8026 8.76081 17.7307 8.79058C17.6588 8.82035 17.5935 8.86399 17.5385 8.91901C17.4835 8.97402 17.4398 9.03934 17.4101 9.11121C17.3803 9.18309 17.365 9.26013 17.365 9.33794Z" fill="#06A0B4"/>
</svg>
