<svg width="220" height="46" viewBox="0 0 220 46" fill="none" xmlns="http://www.w3.org/2000/svg">
<mask id="path-1-inside-1_518_1025" fill="white">
<path d="M0 2C0 0.89543 0.89543 0 2 0H218C219.105 0 220 0.895431 220 2V44C220 45.1046 219.105 46 218 46H2C0.895429 46 0 45.1046 0 44V2Z"/>
</mask>
<path d="M0 2C0 0.89543 0.89543 0 2 0H218C219.105 0 220 0.895431 220 2V44C220 45.1046 219.105 46 218 46H2C0.895429 46 0 45.1046 0 44V2Z" fill="#F3F8FE"/>
<path d="M0 0H220H0ZM220 46H0H220ZM0 46V0V46ZM218 0C222.418 0 226 3.58172 226 8V38C226 42.4183 222.418 46 218 46H214C214 46 214 45.1046 214 44V2C214 0.895431 214 0 214 0H218Z" fill="#308DE9" mask="url(#path-1-inside-1_518_1025)"/>
<path d="M68.4286 13.0382C68.4286 12.8108 68.5189 12.5928 68.6796 12.4321C68.8404 12.2713 69.0584 12.181 69.2857 12.181H71.8571C73.2211 12.181 74.5292 12.7228 75.4937 13.6873C76.4582 14.6518 77 15.9599 77 17.3239V24.181C77 25.545 76.4582 26.8531 75.4937 27.8176C74.5292 28.782 73.2211 29.3239 71.8571 29.3239H69.2857C69.0584 29.3239 68.8404 29.2336 68.6796 29.0728C68.5189 28.9121 68.4286 28.6941 68.4286 28.4667C68.4286 28.2394 68.5189 28.0214 68.6796 27.8606C68.8404 27.6999 69.0584 27.6096 69.2857 27.6096H71.8571C72.7221 27.6099 73.5553 27.2832 74.1895 26.695C74.8238 26.1069 75.2123 25.3007 75.2771 24.4382L75.2857 24.181V17.3239C75.286 16.4589 74.9593 15.6258 74.3711 14.9915C73.783 14.3572 72.9768 13.9687 72.1143 13.9039L71.8571 13.8953H69.2857C69.0584 13.8953 68.8404 13.805 68.6796 13.6442C68.5189 13.4835 68.4286 13.2655 68.4286 13.0382ZM59.9737 21.8714L60.0731 21.7514L64.3931 17.4314C64.4788 17.3438 64.5825 17.276 64.6972 17.2328C64.8118 17.1896 64.9344 17.1719 65.0566 17.1811L65.216 17.2085L65.3703 17.2634L65.4903 17.3319L65.6069 17.4314L69.9269 21.7514L70.0263 21.8714C70.14 22.0365 70.1923 22.2362 70.174 22.4359C70.1557 22.6356 70.068 22.8225 69.9261 22.9642C69.7842 23.1058 69.5972 23.1933 69.3975 23.2113C69.1978 23.2293 68.9981 23.1768 68.8331 23.0628L68.7149 22.9651L65.8571 20.1057L65.8589 33.3892C65.8593 33.6033 65.7794 33.8099 65.6351 33.9682C65.4908 34.1265 65.2925 34.225 65.0792 34.2444C64.8658 34.2637 64.653 34.2025 64.4826 34.0728C64.3121 33.9431 64.1964 33.7542 64.1583 33.5434L64.1446 33.3892L64.1429 20.1074L61.2869 22.9651C61.1448 23.1068 60.9576 23.1942 60.7577 23.2121C60.5578 23.2299 60.3581 23.1771 60.1931 23.0628L60.0731 22.9651C59.9314 22.823 59.844 22.6358 59.8262 22.4359C59.8083 22.2361 59.8611 22.0363 59.9754 21.8714H59.9737ZM63.7143 13.0382C63.7143 12.6972 63.8497 12.3701 64.0909 12.129C64.332 11.8879 64.659 11.7524 65 11.7524C65.341 11.7524 65.668 11.8879 65.9091 12.129C66.1503 12.3701 66.2857 12.6972 66.2857 13.0382C66.2857 13.3791 66.1503 13.7062 65.9091 13.9473C65.668 14.1884 65.341 14.3239 65 14.3239C64.659 14.3239 64.332 14.1884 64.0909 13.9473C63.8497 13.7062 63.7143 13.3791 63.7143 13.0382ZM53 17.3239C53 15.9599 53.5418 14.6518 54.5063 13.6873C55.4708 12.7228 56.7789 12.181 58.1429 12.181H60.7143C60.9416 12.181 61.1596 12.2713 61.3204 12.4321C61.4811 12.5928 61.5714 12.8108 61.5714 13.0382C61.5714 13.2655 61.4811 13.4835 61.3204 13.6442C61.1596 13.805 60.9416 13.8953 60.7143 13.8953H58.1429C57.2779 13.895 56.4447 14.2217 55.8105 14.8099C55.1762 15.398 54.7877 16.2042 54.7229 17.0667L54.7143 17.3239V24.181C54.714 25.046 55.0407 25.8791 55.6289 26.5134C56.217 27.1476 57.0232 27.5361 57.8857 27.601L58.1429 27.6096H60.7143C60.9416 27.6096 61.1596 27.6999 61.3204 27.8606C61.4811 28.0214 61.5714 28.2394 61.5714 28.4667C61.5714 28.6941 61.4811 28.9121 61.3204 29.0728C61.1596 29.2336 60.9416 29.3239 60.7143 29.3239H58.1429C56.7789 29.3239 55.4708 28.782 54.5063 27.8176C53.5418 26.8531 53 25.545 53 24.181V17.3239Z" fill="#308DE9"/>
<path d="M97.22 22.66V24.78C96.16 25.14 95.06 25.46 93.9 25.76V29.82C93.9 31.14 93.2 31.82 91.8 31.82H89.54L89.08 29.84C89.78 29.92 90.44 29.96 91.08 29.96C91.54 29.96 91.78 29.72 91.78 29.28V26.26C90.62 26.5 89.44 26.72 88.2 26.92L87.9 24.82C89.26 24.62 90.56 24.38 91.78 24.12V20.68H87.88V18.68H91.78V16.82C90.82 17.02 89.84 17.18 88.8 17.32L88.36 15.34C91.12 15.04 93.6 14.46 95.76 13.58L96.48 15.54C95.66 15.84 94.8 16.1 93.9 16.34V18.68H98C97.88 17.14 97.84 15.44 97.84 13.6H99.94C99.96 15.52 100.02 17.2 100.14 18.68H106.12V20.68H100.3C100.42 21.98 100.6 23.04 100.82 23.88C100.9 24.2 100.98 24.48 101.06 24.76C101.88 23.74 102.6 22.6 103.2 21.36L105 22.32C104.12 24.12 103.06 25.7 101.84 27.02C102.04 27.5 102.26 27.92 102.48 28.24C103.04 29.12 103.48 29.56 103.76 29.56C103.98 29.56 104.2 28.54 104.44 26.54L106.3 27.52C105.78 30.38 105.04 31.82 104.06 31.82C103.18 31.82 102.26 31.22 101.32 30.04C100.96 29.58 100.62 29.06 100.32 28.46C98.96 29.58 97.44 30.46 95.78 31.1L94.62 29.32C96.46 28.64 98.08 27.68 99.46 26.44C99.24 25.8 99.04 25.14 98.86 24.46C98.56 23.38 98.34 22.12 98.18 20.68H93.9V23.64C95.06 23.34 96.18 23.02 97.22 22.66ZM102.14 13.78C103.54 14.66 104.74 15.54 105.74 16.42L104.24 17.92C103.42 17.04 102.26 16.12 100.74 15.12L102.14 13.78ZM108.08 14.2H125.92V16.08H120.24V17.4H124.74V22.8H116.6L115.88 24.06H126.16V25.98H122.02C121.64 26.98 121.02 27.84 120.18 28.6C122.06 29.16 123.96 29.8 125.92 30.54L124.62 32.26C122.52 31.38 120.42 30.58 118.32 29.9C116.44 30.86 113.38 31.62 109.1 32.2L108.32 30.32C111.36 30 113.74 29.56 115.5 29.02C114 28.58 112.52 28.2 111.04 27.86C111.48 27.22 111.9 26.6 112.3 25.98H107.82V24.06H113.5C113.74 23.62 114 23.2 114.24 22.8H109.26V17.4H113.76V16.08H108.08V14.2ZM117.94 27.96C118.82 27.4 119.46 26.74 119.86 25.98H114.7C114.44 26.36 114.2 26.7 114 27.02C115.28 27.28 116.6 27.6 117.94 27.96ZM118.26 17.4V16.08H115.74V17.4H118.26ZM122.74 21.04V19.16H120.24V21.04H122.74ZM118.26 21.04V19.16H115.74V21.04H118.26ZM113.76 21.04V19.16H111.26V21.04H113.76ZM134.98 13.58H137.14V19.52H144.54V21.54H137.14V29.36H146.02V31.4H128.04V29.36H134.98V13.58ZM150.02 21.7C149.46 22.38 148.88 23.02 148.26 23.64L147.56 21.4C149.58 19.18 151.08 16.56 152.06 13.54L154.04 14.46C153.56 15.94 152.9 17.38 152.1 18.74V32.12H150.02V21.7ZM153.92 15.92H157.72L158.26 13.54L160.3 13.74C160.14 14.5 159.96 15.22 159.8 15.92H165.48V17.92H159.28C159.12 18.52 158.96 19.1 158.8 19.64H166.3V21.62H158.14C157.88 22.32 157.62 22.98 157.38 23.58H165.24V25.38C164.46 26.62 163.26 27.86 161.66 29.1C162.46 29.52 163.22 29.96 163.96 30.44L162.8 32.24C160.36 30.62 157.84 29.34 155.28 28.42L156.38 26.78C157.58 27.22 158.74 27.68 159.84 28.2C161.16 27.32 162.2 26.42 163 25.5H154.66C155.18 24.26 155.66 22.96 156.12 21.62H153.04V19.64H156.74C156.9 19.06 157.06 18.48 157.22 17.92H153.92V15.92Z" fill="#308DE9"/>
</svg>
